<svg id="visual" viewBox="0 0 900 600" width="900" height="600" xmlns="http://www.w3.org/2000/svg" xmlns:xlink="http://www.w3.org/1999/xlink" version="1.1"><rect x="0" y="0" width="900" height="600" fill="#002233"></rect><path d="M0 396L21.5 417.2C43 438.3 86 480.7 128.8 501.7C171.7 522.7 214.3 522.3 257.2 508.8C300 495.3 343 468.7 385.8 468.7C428.7 468.7 471.3 495.3 514.2 487.5C557 479.7 600 437.3 642.8 430.5C685.7 423.7 728.3 452.3 771.2 455.3C814 458.3 857 435.7 878.5 424.3L900 413L900 601L878.5 601C857 601 814 601 771.2 601C728.3 601 685.7 601 642.8 601C600 601 557 601 514.2 601C471.3 601 428.7 601 385.8 601C343 601 300 601 257.2 601C214.3 601 171.7 601 128.8 601C86 601 43 601 21.5 601L0 601Z" fill="#0066FF" stroke-linecap="round" stroke-linejoin="miter"></path></svg>