<svg id="visual" viewBox="0 0 900 600" width="900" height="600" xmlns="http://www.w3.org/2000/svg" xmlns:xlink="http://www.w3.org/1999/xlink" version="1.1"><rect x="0" y="0" width="900" height="600" fill="#001220"></rect><defs><linearGradient id="grad1_0" x1="33.3%" y1="0%" x2="100%" y2="100%"><stop offset="20%" stop-color="#001220" stop-opacity="1"></stop><stop offset="80%" stop-color="#001220" stop-opacity="1"></stop></linearGradient></defs><defs><linearGradient id="grad2_0" x1="0%" y1="0%" x2="66.7%" y2="100%"><stop offset="20%" stop-color="#001220" stop-opacity="1"></stop><stop offset="80%" stop-color="#001220" stop-opacity="1"></stop></linearGradient></defs><g transform="translate(900, 0)"><path d="M0 297.5C-36.3 286.8 -72.6 276.1 -109.1 263.3C-145.6 250.5 -182.3 235.7 -210.3 210.3C-238.3 184.9 -257.6 148.9 -270.7 112.1C-283.8 75.3 -290.6 37.7 -297.5 0L0 0Z" fill="#FBAE3C"></path></g><g transform="translate(0, 600)"><path d="M0 -297.5C39.4 -293.7 78.8 -290 113.8 -274.8C148.8 -259.6 179.4 -233 203.6 -203.6C227.9 -174.3 245.9 -142.3 260.5 -107.9C275.1 -73.5 286.3 -36.8 297.5 0L0 0Z" fill="#FBAE3C"></path></g></svg>